<?xml version="1.0" encoding="utf-8"?>

<svg version="1.1"
     xmlns="http://www.w3.org/2000/svg"
     xmlns:xlink="http://www.w3.org/1999/xlink"
     x="0px" y="0px"
     viewBox="0 0 26.061 38.899"
     enable-background="new 0 0 26.061 38.899"
     xml:space="preserve">

    <path d="M26.061,10.217c0,7.197-5.834,13.031-13.031,13.031C5.834,23.248,0,17.413,0,10.217C0,7.364,0.917,4.725,2.472,2.58C3.828,0.706,5.475,0,7.814,0h5.216h5.216c2.34,0,3.987,0.707,5.344,2.581C25.144,4.726,26.061,7.364,26.061,10.217z"/>
    <path fill="#FFFFFF" d="M23.725,10.158c0,5.907-4.789,10.695-10.695,10.695S2.336,16.065,2.336,10.158c0-2.087,0.597-4.036,1.632-5.681C4.927,2.95,6.035,2.214,7.845,2.214c1.649,0,3.305,0,5.187,0h5.187c1.81,0,2.917,0.735,3.877,2.263C23.127,6.124,23.725,8.071,23.725,10.158z"/>
    <path d="M18.743,15.439c0,1.352-1.096,2.448-2.448,2.448c-1.351,0-2.447-1.096-2.447-2.448s1.096-2.448,2.447-2.448C17.647,12.992,18.743,14.088,18.743,15.439z M12.24,15.387c0,1.352-1.096,2.448-2.448,2.448c-1.351,0-2.447-1.096-2.447-2.448s1.096-2.448,2.447-2.448C11.144,12.939,12.24,14.035,12.24,15.387z M8.857,10.439c0,1.351-1.096,2.448-2.448,2.448c-1.351,0-2.447-1.096-2.447-2.448s1.096-2.448,2.447-2.448C7.761,7.992,8.857,9.088,8.857,10.439z M15.52,10.439c0,1.351-1.096,2.448-2.448,2.448c-1.351,0-2.447-1.096-2.447-2.448s1.096-2.448,2.447-2.448C14.424,7.992,15.52,9.088,15.52,10.439z M22.067,10.439c0,1.351-1.096,2.448-2.448,2.448c-1.352,0-2.448-1.096-2.448-2.448s1.096-2.448,2.448-2.448C20.971,7.992,22.067,9.088,22.067,10.439z"/>
    <path d="M11.607,5.8c0,1.034-0.838,1.871-1.871,1.871S7.865,6.833,7.865,5.8s0.838-1.871,1.871-1.871C10.769,3.929,11.607,4.767,11.607,5.8z M18.229,5.8c0,1.034-0.838,1.871-1.871,1.871c-1.032,0-1.871-0.838-1.871-1.871s0.839-1.871,1.871-1.871C17.391,3.929,18.229,4.767,18.229,5.8z"/>
    <path d="M18.236,38.899H7.825C3.521,38.899,0,35.377,0,31.073v0c0-4.304,3.521-7.825,7.825-7.825h10.411c4.304,0,7.825,3.521,7.825,7.825v0C26.061,35.377,22.54,38.899,18.236,38.899z"/>
    <path fill="#FFFFFF" d="M18.17,37.379H8c-3.468,0-6.306-2.838-6.306-6.306v0c0-3.468,2.838-6.306,6.306-6.306h10.17c3.468,0,6.306,2.838,6.306,6.306v0C24.475,34.541,21.638,37.379,18.17,37.379z"/>
    <path d="M7.5,35.573L7.5,35.573c-2.475,0-4.5-2.025-4.5-4.5v0c0-2.475,2.025-4.5,4.5-4.5h0c2.475,0,4.5,2.025,4.5,4.5v0C12,33.548,9.975,35.573,7.5,35.573z"/>
    <path d="M18.67,35.573L18.67,35.573c-2.475,0-4.5-2.025-4.5-4.5v0c0-2.475,2.025-4.5,4.5-4.5h0c2.475,0,4.5,2.025,4.5,4.5v0C23.17,33.548,21.145,35.573,18.67,35.573z"/>

</svg>
