<?xml version="1.0" encoding="utf-8"?>
<!-- Generator: Adobe Illustrator 18.0.0, SVG Export Plug-In . SVG Version: 6.00 Build 0)  -->
<!DOCTYPE svg PUBLIC "-//W3C//DTD SVG 1.1//EN" "http://www.w3.org/Graphics/SVG/1.1/DTD/svg11.dtd">
<svg version="1.1" xmlns="http://www.w3.org/2000/svg" xmlns:xlink="http://www.w3.org/1999/xlink" x="0px" y="0px"
	 viewBox="0 0 25.001 26.72" enable-background="new 0 0 25.001 26.72" xml:space="preserve">
<g id="CEE_Blau">
	<path fill="#316CFB" d="M25.001,12.514C25.001,5.603,19.399,0,12.488,0S-0.026,5.603-0.026,12.514
		c0,6.323,4.689,11.549,10.78,12.393c-0.001,0.025-0.004,0.05-0.004,0.076c0,0.96,0.778,1.737,1.737,1.737
		c0.96,0,1.737-0.778,1.737-1.737c0-0.026-0.003-0.05-0.004-0.076C20.312,24.063,25.001,18.836,25.001,12.514z"/>
	<circle fill="#FFFFFF" cx="12.488" cy="12.514" r="10.629"/>
	<circle cx="17.905" cy="9.141" r="1.533"/>
	<circle cx="7.071" cy="9.141" r="1.533"/>
	<circle cx="12.488" cy="17.522" r="2.197"/>
</g>
<g id="CEE_Rot">
	<path fill="#BC0313" d="M731.846-249.564C731.846-317.184,677.03-372,609.41-372s-122.436,54.816-122.436,122.436
		c0,61.863,45.883,113,105.473,121.261c-0.011,0.247-0.037,0.49-0.037,0.739c0,9.389,7.611,17,17,17c9.389,0,17-7.611,17-17
		c0-0.25-0.027-0.492-0.037-0.739C685.963-136.564,731.846-187.701,731.846-249.564z"/>
	<circle fill="#FFFFFF" cx="609.41" cy="-249.564" r="104"/>
	<circle cx="651.41" cy="-298.564" r="15"/>
	<circle cx="568.41" cy="-298.564" r="15"/>
	<circle cx="609.41" cy="-194.564" r="21.5"/>
	<circle cx="676.41" cy="-233.564" r="15"/>
	<circle cx="542.41" cy="-233.564" r="15"/>
</g>
</svg>
