<?xml version="1.0" encoding="utf-8"?>
<!-- Generator: Adobe Illustrator 18.0.0, SVG Export Plug-In . SVG Version: 6.00 Build 0)  -->
<!DOCTYPE svg PUBLIC "-//W3C//DTD SVG 1.1//EN" "http://www.w3.org/Graphics/SVG/1.1/DTD/svg11.dtd">
<svg version="1.1" xmlns="http://www.w3.org/2000/svg" xmlns:xlink="http://www.w3.org/1999/xlink" x="0px" y="0px"
	 viewBox="0 0 25.001 26.72" enable-background="new 0 0 25.001 26.72" xml:space="preserve">
<g id="CEE_Blau">
</g>
<g id="CEE_Rot">
	<path fill="#BC0313" d="M24.919,12.472C24.919,5.584,19.335,0,12.447,0S-0.026,5.584-0.026,12.472
		c0,6.302,4.674,11.511,10.744,12.353c-0.001,0.025-0.004,0.05-0.004,0.075c0,0.956,0.775,1.732,1.732,1.732
		c0.956,0,1.732-0.775,1.732-1.732c0-0.025-0.003-0.05-0.004-0.075C20.245,23.983,24.919,18.774,24.919,12.472z"/>
	<circle fill="#FFFFFF" cx="12.447" cy="12.472" r="10.594"/>
	<circle cx="16.725" cy="7.481" r="1.528"/>
	<circle cx="8.27" cy="7.481" r="1.528"/>
	<circle cx="12.447" cy="18.075" r="2.19"/>
	<circle cx="19.272" cy="14.102" r="1.528"/>
	<circle cx="5.622" cy="14.102" r="1.528"/>
</g>
</svg>
