<?xml version="1.0" encoding="utf-8"?>
<!-- Generator: Adobe Illustrator 18.0.0, SVG Export Plug-In . SVG Version: 6.00 Build 0)  -->
<!DOCTYPE svg PUBLIC "-//W3C//DTD SVG 1.1//EN" "http://www.w3.org/Graphics/SVG/1.1/DTD/svg11.dtd">
<svg version="1.1" xmlns="http://www.w3.org/2000/svg" xmlns:xlink="http://www.w3.org/1999/xlink" x="0px" y="0px"
	 viewBox="0 0 37.8 47" enable-background="new 0 0 37.8 47" xml:space="preserve">
<g id="Ebene_2">
</g>
<g id="Ebene_3">
	<path stroke="#000000" stroke-width="0.75" stroke-linecap="round" stroke-linejoin="round" stroke-miterlimit="10" d="M14.6,1.6
		h8.3 M22.9,5.7V0.5h0.8c0,0,0.6,0.1,0.9,0.9c0.2,0.8,0.8,3.3,1.1,4c0.2,0.7,0.4,1.1,1.2,1.7 M14.6,5.7V0.5h-0.8
		c0,0-0.6,0.1-0.9,0.9c-0.2,0.8-0.8,3.3-1.1,4c-0.2,0.7-0.4,1.1-1.2,1.7 M37,23.5c0,7.6-4.7,14.2-11.3,16.9v3.3
		c0,0.4-1.2,0.9-1.7,1.1c-0.5,0.2-2.8,0.8-5.3,0.8c-2.5,0-4.8-0.7-5.3-0.8c-0.5-0.1-1.7-0.6-1.7-1.1v-3.3
		C5.2,37.7,0.5,31.2,0.5,23.5c0-10.1,8.2-18.3,18.3-18.3C28.9,5.3,37,13.5,37,23.5z"/>
	<g>
		<circle fill="#FFFFFF" cx="18.8" cy="23.3" r="15.5"/>
		<path d="M18.8,39.2c-8.8,0-15.9-7.1-15.9-15.9S10,7.4,18.8,7.4c8.8,0,15.9,7.1,15.9,15.9S27.5,39.2,18.8,39.2z M18.8,8.2
			C10.4,8.2,3.6,15,3.6,23.3s6.8,15.1,15.1,15.1c8.3,0,15.1-6.8,15.1-15.1S27.1,8.2,18.8,8.2z"/>
	</g>
	<circle cx="12.6" cy="16.8" r="4.2"/>
	<circle cx="25" cy="16.7" r="4.2"/>
	<circle cx="27.3" cy="28.3" r="2.9"/>
	<circle cx="10.2" cy="28.3" r="2.9"/>
	<circle cx="18.8" cy="32.5" r="3.9"/>
</g>
</svg>
