<?xml version="1.0" encoding="utf-8"?>

<svg version            = "1.1"
     xmlns              = "http://www.w3.org/2000/svg"
     xmlns:xlink        = "http://www.w3.org/1999/xlink"
     x                  = "0px"
     y                  = "0px"
     viewBox            = "0 0 24.611 21.954"
     enable-background  = "new 0 0 24.611 21.954"
     xml:space          = "preserve">

    <path class="socket" d="M24.611,9.648c0,6.796-5.509,12.306-12.306,12.306C5.509,21.954,0,16.444,0,9.648c0-2.694,0.866-5.186,2.334-7.212C3.615,0.667,5.17,0,7.379,0h4.926h4.926c2.21,0,3.765,0.668,5.047,2.437C23.745,4.463,24.611,6.954,24.611,9.648z"/>

    <path fill="#FFFFFF" d="M22.405,9.593c0,5.578-4.522,10.1-10.1,10.1c-5.578,0-10.099-4.522-10.099-10.1
        c0-1.971,0.564-3.811,1.541-5.365c0.906-1.442,1.952-2.137,3.661-2.137c1.557,0,3.121,0,4.898,0h4.898
        c1.709,0,2.755,0.694,3.661,2.137C21.84,5.783,22.405,7.622,22.405,9.593z"/>

    <path class="socket" d="M17.7,14.58c0,1.277-1.035,2.312-2.312,2.312c-1.276,0-2.311-1.035-2.311-2.312c0-1.277,1.035-2.312,2.311-2.312
        C16.665,12.269,17.7,13.304,17.7,14.58z M11.559,14.531c0,1.277-1.035,2.312-2.312,2.312c-1.276,0-2.311-1.035-2.311-2.312
        c0-1.277,1.035-2.312,2.311-2.312C10.524,12.219,11.559,13.254,11.559,14.531z M8.364,9.858c0,1.276-1.035,2.312-2.312,2.312
        c-1.276,0-2.311-1.035-2.311-2.312c0-1.277,1.035-2.312,2.311-2.312C7.329,7.547,8.364,8.582,8.364,9.858z M14.656,9.858
        c0,1.276-1.035,2.312-2.312,2.312c-1.276,0-2.311-1.035-2.311-2.312c0-1.277,1.035-2.312,2.311-2.312
        C13.621,7.547,14.656,8.582,14.656,9.858z M20.839,9.858c0,1.276-1.035,2.312-2.312,2.312c-1.277,0-2.312-1.035-2.312-2.312
        c0-1.277,1.035-2.312,2.312-2.312C19.804,7.547,20.839,8.582,20.839,9.858z"/>

    <path class="socket" d="M10.961,5.477c0,0.976-0.791,1.767-1.767,1.767c-0.976,0-1.767-0.791-1.767-1.767c0-0.976,0.791-1.767,1.767-1.767
        C10.17,3.71,10.961,4.502,10.961,5.477z M17.214,5.477c0,0.976-0.791,1.767-1.767,1.767c-0.975,0-1.767-0.791-1.767-1.767
        c0-0.976,0.792-1.767,1.767-1.767C16.423,3.71,17.214,4.502,17.214,5.477z"/>

</svg>
