<?xml version="1.0" encoding="UTF-8" standalone="no"?>

<svg xmlns:dc="http://purl.org/dc/elements/1.1/"
     xmlns="http://www.w3.org/2000/svg"
     version="1.1"
     x="0px"
     y="0px"
     viewBox="0 0 29.166782 29.258935"
     enable-background="new 0 0 24.611 21.954"
     xml:space="preserve">

<path class="socket"
      d="m 24.611,16.952935 c 0,6.796 -5.509,12.306 -12.306,12.306 -6.7960001,0 -12.305000098817965,-5.51 -12.305000098817965,-12.306 0,-2.694 0.865999998817965,-5.186 2.333999998817965,-7.212 1.281,-1.769 2.836,-2.436 5.045,-2.436 H 12.305 17.231 c 2.21,0 3.765,0.668 5.047,2.437 1.467,2.026 2.333,4.517 2.333,7.211 z"
      id="path4" />
<path d="m 22.405,16.897935 c 0,5.578 -4.522,10.1 -10.1,10.1 -5.5780001,0 -10.0990001,-4.522 -10.0990001,-10.1 0,-1.971 0.564,-3.811 1.541,-5.365 0.906,-1.442 1.952,-2.137 3.661,-2.137 1.5569997,0 3.1210001,0 4.8980001,0 h 4.898 c 1.709,0 2.755,0.694 3.661,2.137 0.975,1.555 1.54,3.394 1.54,5.365 z"
      id="path6"
      style="fill:#ffffff" />
<path class="socket"
      d="m 17.7,21.884935 c 0,1.277 -1.035,2.312 -2.312,2.312 -1.276,0 -2.311,-1.035 -2.311,-2.312 0,-1.277 1.035,-2.312 2.311,-2.312 1.277,10e-4 2.312,1.036 2.312,2.312 z m -6.141,-0.049 c 0,1.277 -1.035,2.312 -2.3120004,2.312 -1.276,0 -2.3109997,-1.035 -2.3109997,-2.312 0,-1.277 1.0349997,-2.312 2.3109997,-2.312 1.2770004,0 2.3120004,1.035 2.3120004,2.312 z m -3.1950004,-4.673 c 0,1.276 -1.0349997,2.312 -2.3119997,2.312 -1.276,0 -2.311,-1.035 -2.311,-2.312 0,-1.277 1.035,-2.312 2.311,-2.312 1.277,10e-4 2.3119997,1.036 2.3119997,2.312 z m 6.2920004,0 c 0,1.276 -1.035,2.312 -2.312,2.312 -1.276,0 -2.311,-1.035 -2.311,-2.312 0,-1.277 1.035,-2.312 2.311,-2.312 1.277,10e-4 2.312,1.036 2.312,2.312 z m 6.183,0 c 0,1.276 -1.035,2.312 -2.312,2.312 -1.277,0 -2.312,-1.035 -2.312,-2.312 0,-1.277 1.035,-2.312 2.312,-2.312 1.277,10e-4 2.312,1.036 2.312,2.312 z"
      id="path8" />
<path class="socket"
      d="m 10.961,12.781935 c 0,0.976 -0.791,1.767 -1.7670004,1.767 -0.976,0 -1.7669997,-0.791 -1.7669997,-1.767 0,-0.976 0.7909997,-1.767 1.7669997,-1.767 0.9760004,0 1.7670004,0.792 1.7670004,1.767 z m 6.253,0 c 0,0.976 -0.791,1.767 -1.767,1.767 -0.975,0 -1.767,-0.791 -1.767,-1.767 0,-0.976 0.792,-1.767 1.767,-1.767 0.976,0 1.767,0.792 1.767,1.767 z"
      id="path10" />
<path d="M 22.527238,14.30679 C 22.724586,14.554342 21.812955,9.720357 28.740794,1.5826144 29.854779,0.24760996 28.54327,-0.72481794 27.555162,0.70840246 26.023044,2.9306932 19.669955,8.660387 18.195077,8.26652 c -2.347833,-0.466883 2.698317,2.11152 2.698317,1.782375 0,-0.3291453 1.479962,4.064867 1.633844,4.257895 z"
      id="rect3005"/>

</svg>