<?xml version="1.0" encoding="utf-8"?>

<svg version="1.1"
     xmlns="http://www.w3.org/2000/svg"
     xmlns:xlink="http://www.w3.org/1999/xlink"
     x="0px" y="0px"
     viewBox="0 0 25.748 25.911"
     enable-background="new 0 0 25.748 25.911"
     xml:space="preserve">

    <path d="M13.937,24.033l-2,0.003l-0.012,1.875c-5.618-0.296-10.14-5.636-10.14-6.708v-4.462l-1.767,0.003L0,11.079l1.786-0.022V6.613c0.662-1.802,4.539-6.356,10.104-6.61l-0.01,1.576h1.99L13.877,0c5.61,0.208,9.571,4.673,10.184,6.613v4.574l1.687-0.006v3.497l-1.687,0v4.325c-0.137,1.578-4.518,6.614-10.12,6.906L13.937,24.033z"/>
    <circle fill="#FFFFFF" cx="7.68" cy="12.911" r="2.436"/>
    <circle fill="#FFFFFF" cx="18.254" cy="12.911" r="2.436"/>

</svg>
