<?xml version="1.0" encoding="UTF-8" standalone="no"?>
<!-- Created with Inkscape (http://www.inkscape.org/) -->

<svg
   xmlns:dc="http://purl.org/dc/elements/1.1/"
   xmlns:cc="http://creativecommons.org/ns#"
   xmlns:rdf="http://www.w3.org/1999/02/22-rdf-syntax-ns#"
   xmlns:svg="http://www.w3.org/2000/svg"
   xmlns="http://www.w3.org/2000/svg"
   version="1.0"
   width="653.49091"
   height="585.0014"
   id="svg2198">
  <defs
     id="defs2200" />
  <metadata
     id="metadata2203">
    <rdf:RDF>
      <cc:Work
         rdf:about="">
        <dc:format>image/svg+xml</dc:format>
        <dc:type
           rdf:resource="http://purl.org/dc/dcmitype/StillImage" />
        <dc:title></dc:title>
      </cc:Work>
    </rdf:RDF>
  </metadata>
  <g
     transform="translate(-1.0372319,-464.30969)"
     id="layer2"
     style="display:inline">
    <path
       d="M 330.7812,1047.7975 C 107.38714,1046.5801 2.8407,893.89742 2.53121,719.79752 2.2986,588.94411 71.1599,492.59605 180.78121,469.39127 228.92599,467.64846 284.2468,465.75364 332.413,465.81392"
       id="path3251"
       style="fill:none;stroke:#000000;stroke-width:3;stroke-linecap:butt;stroke-linejoin:miter;stroke-miterlimit:4;stroke-opacity:1;stroke-dasharray:none" />
    <path
       d="M 329.9374,997.48502 C 149.57364,997.47266 55.77819,851.67158 55.28121,737.01627 c -0.48053,-110.01682 52.92962,-204.54551 148.5,-216.53125 21.14926,-2.65239 74.13169,-6.27478 127.40729,-5.09946"
       id="path3253"
       style="fill:none;stroke:#000000;stroke-width:3;stroke-linecap:butt;stroke-linejoin:miter;stroke-miterlimit:4;stroke-opacity:1;stroke-dasharray:none" />
    <path
       d="M 330.3744,983.32877 C 183.36915,984.03094 69.15893,872.3678 70.65621,727.70377 c 1.06712,-106.56493 64.27194,-182.8003 132.25,-193.59375 41.08656,-6.52366 84.17399,-8.32402 127.88459,-7.29208"
       id="path3255"
       style="fill:none;stroke:#000000;stroke-width:3;stroke-linecap:butt;stroke-linejoin:miter;stroke-miterlimit:4;stroke-opacity:1;stroke-dasharray:none" />
    <path
       d="M 329.4999,970.32877 C 162.07644,969.09415 84.44799,832.49405 84.31246,737.70377 c -0.1327,-94.00023 51.18023,-181.93512 127.125,-190.8125 28.88381,-3.3763 75.02714,-5.02779 120.97764,-5.003"
       id="path3257"
       style="fill:none;stroke:#000000;stroke-width:3;stroke-linecap:butt;stroke-linejoin:miter;stroke-miterlimit:4;stroke-opacity:1;stroke-dasharray:none" />
    <path
       d="m 302.7091,542.56832 -0.073,26.81884 26.2014,0 24.3825,0 0,-27.24465"
       id="path3267"
       style="fill:none;stroke:#000000;stroke-width:3;stroke-linecap:butt;stroke-linejoin:miter;stroke-miterlimit:4;stroke-opacity:1;stroke-dasharray:none" />
    <path
       d="M 324.7842,1047.7975 C 548.17826,1046.5801 652.7247,893.89742 653.03419,719.79752 653.2668,588.94411 584.4055,492.59605 474.78419,469.39127 426.63941,467.64846 371.3186,465.75364 323.1524,465.81392"
       id="path5236"
       style="fill:none;stroke:#000000;stroke-width:3;stroke-linecap:butt;stroke-linejoin:miter;stroke-miterlimit:4;stroke-opacity:1;stroke-dasharray:none" />
    <path
       d="m 325.628,997.48502 c 180.36376,-0.0124 274.15921,-145.81344 274.65619,-260.46875 0.48053,-110.01682 -52.92962,-204.54551 -148.5,-216.53125 -21.14926,-2.65239 -74.13169,-6.27478 -127.40729,-5.09946"
       id="path5234"
       style="fill:none;stroke:#000000;stroke-width:3;stroke-linecap:butt;stroke-linejoin:miter;stroke-miterlimit:4;stroke-opacity:1;stroke-dasharray:none" />
    <path
       d="M 325.191,983.32877 C 472.19625,984.03094 586.40647,872.3678 584.90919,727.70377 583.84207,621.13884 520.63725,544.90347 452.65919,534.11002 411.57263,527.58636 368.4852,525.786 324.7746,526.81794"
       id="path5232"
       style="fill:none;stroke:#000000;stroke-width:3;stroke-linecap:butt;stroke-linejoin:miter;stroke-miterlimit:4;stroke-opacity:1;stroke-dasharray:none" />
    <path
       d="m 326.0655,970.32877 c 167.42346,-1.23462 245.05191,-137.83472 245.18744,-232.625 0.1327,-94.00023 -51.18023,-181.93512 -127.125,-190.8125 -28.88381,-3.3763 -75.02714,-5.02779 -120.97764,-5.003"
       id="path5230"
       style="fill:none;stroke:#000000;stroke-width:3;stroke-linecap:butt;stroke-linejoin:miter;stroke-miterlimit:4;stroke-opacity:1;stroke-dasharray:none" />
    <path
       d="m 551.90919,723.11002 c 0,-35.88 -29.11999,-65.00001 -64.99999,-65 -35.88,0 -65,29.12001 -65,65 0,35.88 29.12,65.00001 65,65 35.88,0 64.99999,-29.11999 64.99999,-65 z m -31.71869,-0.34375 c 0,18.44536 -14.9609,33.40625 -33.4063,33.40625 -18.4453,0 -33.4375,-14.9609 -33.4375,-33.40625 0,-18.44534 14.9922,-33.4375 33.4375,-33.4375 18.4454,-10e-6 33.4063,14.99215 33.4063,33.4375 z"
       id="use4234"
       style="fill:none;stroke:#000000;stroke-width:12;stroke-miterlimit:4;stroke-opacity:1;stroke-dasharray:none" />
    <path
       d="m 471.90919,861.11002 c 0,-35.88 -29.11999,-65.00001 -64.99999,-65 -35.88,0 -65,29.12001 -65,65 0,35.88 29.12,65.00001 65,65 35.88,0 64.99999,-29.11999 64.99999,-65 z m -31.71869,-0.34375 c 0,18.44536 -14.9609,33.40625 -33.4063,33.40625 -18.4453,0 -33.4375,-14.9609 -33.4375,-33.40625 0,-18.44534 14.9922,-33.4375 33.4375,-33.4375 18.4454,-10e-6 33.4063,14.99215 33.4063,33.4375 z"
       id="use4240"
       style="fill:none;stroke:#000000;stroke-width:12;stroke-miterlimit:4;stroke-opacity:1;stroke-dasharray:none" />
    <path
       d="m 391.90919,723.11002 c 0,-35.88 -29.11999,-65.00001 -64.99999,-65 -35.88,0 -65,29.12001 -65,65 0,35.88 29.12,65.00001 65,65 35.88,0 64.99999,-29.11999 64.99999,-65 z m -31.71869,-0.34375 c 0,18.44536 -14.9609,33.40625 -33.4063,33.40625 -18.4453,0 -33.4375,-14.9609 -33.4375,-33.40625 0,-18.44534 14.9922,-33.4375 33.4375,-33.4375 18.4454,-10e-6 33.4063,14.99215 33.4063,33.4375 z"
       id="path4253"
       style="fill:none;stroke:#000000;stroke-width:12;stroke-miterlimit:4;stroke-opacity:1;stroke-dasharray:none" />
    <path
       d="m 453.50294,610.28971 c 0,-26.91 -21.83999,-48.75001 -48.74999,-48.75 -26.91,0 -48.75,21.84001 -48.75,48.75 0,26.91 21.84,48.75001 48.75,48.75 26.91,0 48.74999,-21.83999 48.74999,-48.75 z m -23.78901,-0.25781 c 0,13.83402 -11.22068,25.05468 -25.05473,25.05468 -13.83397,0 -25.07812,-11.22067 -25.07812,-25.05468 0,-13.83401 11.24415,-25.07813 25.07812,-25.07813 13.83405,-10e-6 25.05473,11.24411 25.05473,25.07813 z"
       id="use5260"
       style="fill:none;stroke:#000000;stroke-width:9;stroke-miterlimit:4;stroke-opacity:1;stroke-dasharray:none" />
    <path
       d="m 352.8563,542.56832 0.073,26.81884 -26.2014,0 -24.3825,0 0,-27.24465"
       id="path5293"
       style="fill:none;stroke:#000000;stroke-width:3;stroke-linecap:butt;stroke-linejoin:miter;stroke-miterlimit:4;stroke-opacity:1;stroke-dasharray:none" />
    <path
       d="m 231.90919,723.11002 c 0,-35.88 -29.11999,-65.00001 -64.99999,-65 -35.88,0 -65,29.12001 -65,65 0,35.88 29.12,65.00001 65,65 35.88,0 64.99999,-29.11999 64.99999,-65 z m -31.71869,-0.34375 c 0,18.44536 -14.9609,33.40625 -33.4063,33.40625 -18.4453,0 -33.4375,-14.9609 -33.4375,-33.40625 0,-18.44534 14.9922,-33.4375 33.4375,-33.4375 18.4454,-10e-6 33.4063,14.99215 33.4063,33.4375 z"
       id="use3296"
       style="fill:none;stroke:#000000;stroke-width:12;stroke-miterlimit:4;stroke-opacity:1;stroke-dasharray:none" />
    <path
       d="m 311.90919,861.11002 c 0,-35.88 -29.11999,-65.00001 -64.99999,-65 -35.88,0 -65,29.12001 -65,65 0,35.88 29.12,65.00001 65,65 35.88,0 64.99999,-29.11999 64.99999,-65 z m -31.71869,-0.34375 c 0,18.44536 -14.9609,33.40625 -33.4063,33.40625 -18.4453,0 -33.4375,-14.9609 -33.4375,-33.40625 0,-18.44534 14.9922,-33.4375 33.4375,-33.4375 18.4454,-10e-6 33.4063,14.99215 33.4063,33.4375 z"
       id="use3298"
       style="fill:none;stroke:#000000;stroke-width:12;stroke-miterlimit:4;stroke-opacity:1;stroke-dasharray:none" />
    <path
       d="m 293.50294,610.28971 c 0,-26.91 -21.83999,-48.75001 -48.74999,-48.75 -26.91,0 -48.75,21.84001 -48.75,48.75 0,26.91 21.84,48.75001 48.75,48.75 26.91,0 48.74999,-21.83999 48.74999,-48.75 z m -23.78901,-0.25781 c 0,13.83402 -11.22068,25.05468 -25.05473,25.05468 -13.83397,0 -25.07812,-11.22067 -25.07812,-25.05468 0,-13.83401 11.24415,-25.07813 25.07812,-25.07813 13.83405,-10e-6 25.05473,11.24411 25.05473,25.07813 z"
       id="use3300"
       style="fill:none;stroke:#000000;stroke-width:9;stroke-miterlimit:4;stroke-opacity:1;stroke-dasharray:none" />
  </g>
</svg>
