<?xml version="1.0" encoding="utf-8"?>
<!-- Generator: Adobe Illustrator 18.0.0, SVG Export Plug-In . SVG Version: 6.00 Build 0)  -->
<!DOCTYPE svg PUBLIC "-//W3C//DTD SVG 1.1//EN" "http://www.w3.org/Graphics/SVG/1.1/DTD/svg11.dtd">
<svg version="1.1" id="Ebene_1" xmlns="http://www.w3.org/2000/svg" xmlns:xlink="http://www.w3.org/1999/xlink" x="0px" y="0px"
	 viewBox="0 0 26.2 13.5" enable-background="new 0 0 26.2 13.5" xml:space="preserve">
<path fill="#FFFFFF" stroke="#000000" stroke-width="2" stroke-miterlimit="10" d="M20,1.9l-1.3-0.4c-0.2-0.1-0.4-0.1-0.7-0.1H8.2
	c-0.2,0-0.4,0-0.7,0.1L6.3,1.9C6,2,5.8,2.1,5.6,2.3L1.7,6c-0.4,0.3-0.4,1,0,1.3l4,3.8c0.1,0.1,0.2,0.2,0.4,0.2L7.4,12
	c0.3,0.1,0.6,0.2,0.9,0.2h9.5c0.3,0,0.6-0.1,0.9-0.2l1.3-0.6c0.1-0.1,0.3-0.1,0.4-0.2l4-3.8C25,7,25,6.3,24.5,6l-3.9-3.7
	C20.4,2.1,20.2,2,20,1.9z"/>
<path d="M19.5,7.3h-1.4c-0.2,0-0.3-0.1-0.3-0.3V5.1c0-0.2,0.1-0.3,0.3-0.3h1.4c0.2,0,0.3,0.1,0.3,0.3V7C19.8,7.2,19.7,7.3,19.5,7.3z
	"/>
<path d="M13.8,10.2h-1.4c-0.2,0-0.3-0.1-0.3-0.3V8c0-0.2,0.1-0.3,0.3-0.3h1.4c0.2,0,0.3,0.1,0.3,0.3v1.9
	C14.1,10.1,14,10.2,13.8,10.2z"/>
<path d="M8,7.3H6.6C6.5,7.3,6.3,7.2,6.3,7V5.1c0-0.2,0.1-0.3,0.3-0.3H8c0.2,0,0.3,0.1,0.3,0.3V7C8.3,7.2,8.2,7.3,8,7.3z"/>
</svg>
